# xmcd
#
# Track frame offsets:
#	150
#	9037
#	23321
#	35922
#	51509
#	68931
#	84286
#	95391
#	103303
#	114252
#	134424
#	150134
#	163887
#	178150
#	189020
#
# Disc length: 2733 seconds
#
# Revision: 1
# Processed by: cddbd v1.5.2PL0 Copyright (c) Steve Scherf et al.
# Submitted via: EZCDAudioConverter 2.1.7.1
#
DISCID=b20aab0f
DTITLE=V/A - In My Room
DYEAR=1900
DGENRE=MOJO
TTITLE0=The Who - Barbara Ann
TTITLE1=Beach Boys - Hang On To Your Ego
TTITLE2=Curt Boettcher - It's A Sad World
TTITLE3=High Llamas - Leaf And Lime
TTITLE4=Superimposers - Would It Be Possible
TTITLE5=Steve Almaas and Ali Smith - The Lonely Sea
TTITLE6=Jan and Dean - Like A Summer Rain
TTITLE7=Epicycle - Wake The World
TTITLE8=Doleful Lions - H.E.L.P. Is On The Way
TTITLE9=Apples In Stereo - Submarine Dream
TTITLE10=The Mockers - God Only Knows
TTITLE11=Elf Power - All The World Is Waiting
TTITLE12=Mark Wirtz Orchestra and Chorus - I Can Hear Music
TTITLE13=Langley Schools Project - In My Room
TTITLE14=The Barracudas - His Last Summer
EXTD=
EXTT0=
EXTT1=
EXTT2=
EXTT3=
EXTT4=
EXTT5=
EXTT6=
EXTT7=
EXTT8=
EXTT9=
EXTT10=
EXTT11=
EXTT12=
EXTT13=
EXTT14=
PLAYORDER=
